<svg id="Layer_1" data-name="Layer 1" xmlns="http://www.w3.org/2000/svg" viewBox="0 0 78.11 100"><title>Artboard 3</title><path d="M76.42,45.34a6,6,0,0,0-4.59-1.79L51.12,44.71l11.4-13A7,7,0,0,0,64,25.21a5.92,5.92,0,0,0-2.65-3.76L34.08,5.61a5.94,5.94,0,0,0-6.94.7L13.85,18.17A5.94,5.94,0,1,0,21.76,27l10.08-9,8.33,4.84L25.47,39.63A30.3,30.3,0,0,0,9.58,47.49l7.68,7.68A19.53,19.53,0,0,1,44.84,82.75l7.68,7.68a30.38,30.38,0,0,0,5.16-34.18l8-.45-2,23.93a5.94,5.94,0,0,0,5.44,6.4l.49,0a5.94,5.94,0,0,0,5.92-5.46L78.09,50A5.94,5.94,0,0,0,76.42,45.34Z" fill="#fff"/><path d="M65.42,19.89a9.95,9.95,0,1,0-9.95-9.95A9.94,9.94,0,0,0,65.42,19.89Z" fill="#fff"/><path d="M30.38,89.15a19.52,19.52,0,0,1-16.16-30.5L6.46,50.89A30.38,30.38,0,0,0,49.1,93.54l-7.76-7.76A19.43,19.43,0,0,1,30.38,89.15Z" fill="#fff"/></svg>